# xmcd
#
# Track frame offsets: 
#        150
#        24458
#        48692
#        76050
#        106522
#        139079
#        161421
#        176453
#        196614
#        218276
#        246635
#        266636
#        293762
#        310345
#        334058
#
# Disc length: 4782 seconds
#
# Revision: 3
# Processed by: cddbd v1.5.2PL0 Copyright (c) Steve Scherf et al.
# Submitted via: ExactAudioCopy v0.99pb5
#
DISCID=c612ac0f
DTITLE=Various Artist - The Thrillseekers: Nightmusic Volume 2 [Disc 2]
DYEAR=2007
DGENRE=Trance
TTITLE0=Supermodels From Paris - Keep On [Komytea Remix]
TTITLE1=Simon and Shaker - Zero
TTITLE2=Headstrong - The Truth [David West Remix]
TTITLE3=Delerium feat. Isabel Bayrakdarian - Angelicus [Andy Moor Remi
TTITLE3=x]
TTITLE4=Filo and Peri feat. Fisher - Ordinary Moment [Breakfast Mix]
TTITLE5=Terry Ferminal - Nymph
TTITLE6=Purple Haze - Rush
TTITLE7=Alex M.O.R.P.H. and Rank 1 - Life Less Ordinary
TTITLE8=Mind One - Hurt Of Intention [Ferry Fix]
TTITLE9=Above and Beyond - Good For Me [Club Mix]
TTITLE10=The Thrillseekers - Newlife [Mike Koglin 2007 Remix]
TTITLE11=Markus Schultz and Departure with Gabriel and Dresden - Without Y
TTITLE11=ou Near [Alex M.O.R.P.H. Remix]
TTITLE12=Sean Tyas - Lift
TTITLE13=Sander van Doorn - Punk'd [Sean Tyas RMX]
TTITLE14=Stoneface and Terminal - Super Nature
EXTD=
EXTT0=
EXTT1=
EXTT2=
EXTT3=
EXTT4=
EXTT5=
EXTT6=
EXTT7=
EXTT8=
EXTT9=
EXTT10=
EXTT11=
EXTT12=
EXTT13=
EXTT14=
PLAYORDER=
